<?xml version="1.0" encoding="UTF-8"?>
<svg width="306px" height="295px" viewBox="0 0 306 295" version="1.1" xmlns="http://www.w3.org/2000/svg" xmlns:xlink="http://www.w3.org/1999/xlink">
    <!-- Generator: Sketch 41 (35326) - http://www.bohemiancoding.com/sketch -->
    <title>Slice 2</title>
    <desc>Created with Sketch.</desc>
    <defs></defs>
    <g id="icon-plane" stroke="none" stroke-width="1" fill="none" fill-rule="evenodd">
        <g id="airplane" transform="translate(-10.000000, -44.000000)">
            <path d="M48.666959,90.42358 C91.992856,76.5756021 186.993912,48.6632717 186.993912,48.6632717 L186.993912,138.663272 C186.993912,138.663272 164.399034,128.544052 150.294087,125.378461 C136.189139,122.21287 131.131654,121.506599 114.309327,122.21287 C96.1036947,122.977218 79.0690305,122.421531 60.6355036,122.21287 C42.2019767,122.004209 18.9943947,125.457306 6.99391673,122.21287 C6.99391673,113.657795 6.93823545,110.596811 18.402718,102.090027 C29.8672005,93.5832427 27.4388181,97.2085941 48.666959,90.42358 Z" id="Rectangle" fill="#050505" transform="translate(96.993912, 93.663272) rotate(42.000000) translate(-96.993912, -93.663272) "></path>
            <path d="M201.666959,234.42358 C244.992856,220.575602 339.993912,192.663272 339.993912,192.663272 L339.993912,282.663272 C339.993912,282.663272 317.399034,272.544052 303.294087,269.378461 C289.189139,266.21287 284.131654,265.506599 267.309327,266.21287 C249.103695,266.977218 232.06903,266.421531 213.635504,266.21287 C195.201977,266.004209 171.994395,269.457306 159.993917,266.21287 C159.993917,257.657795 159.938235,254.596811 171.402718,246.090027 C182.8672,237.583243 180.438818,241.208594 201.666959,234.42358 Z" id="Rectangle" fill="#000000" transform="translate(249.993912, 237.663272) scale(-1, 1) rotate(-42.000000) translate(-249.993912, -237.663272) "></path>
            <path d="M138.824976,64.944817 C146.324976,5.94481702 161.344666,6.09971035 168.824976,64.944817 C176.305287,123.789924 169.569651,248.534006 162.051759,307.674758 C154.533866,366.81551 151.880039,367.659316 144.254884,307.674758 C136.629728,247.690199 131.324976,123.944817 138.824976,64.944817 Z" id="Rectangle-2" fill="#000000" transform="translate(153.643566, 186.550096) rotate(42.000000) translate(-153.643566, -186.550096) "></path>
            <path d="M121.566673,76.4580862 C125.227197,60.4445481 132.557856,60.4865886 136.208771,76.4580862 C139.859685,92.4295838 136.572224,126.287111 132.902967,142.338852 C129.23371,158.390592 127.938456,158.619615 124.216847,142.338852 C120.495238,126.058089 117.906148,92.4716243 121.566673,76.4580862 Z" id="Rectangle-2" fill="#000000" transform="translate(128.799181, 109.463693) rotate(42.000000) translate(-128.799181, -109.463693) "></path>
            <path d="M248.566673,193.458086 C252.227197,177.444548 259.557856,177.486589 263.208771,193.458086 C266.859685,209.429584 263.572224,243.287111 259.902967,259.338852 C256.23371,275.390592 254.938456,275.619615 251.216847,259.338852 C247.495238,243.058089 244.906148,209.471624 248.566673,193.458086 Z" id="Rectangle-2-Copy" fill="#000000" transform="translate(255.799181, 226.463693) rotate(42.000000) translate(-255.799181, -226.463693) "></path>
            <path d="M278.540801,240.356374 C282.201326,228.079328 289.531985,228.111559 293.1829,240.356374 C296.833814,252.601189 293.546353,278.558626 289.877095,290.864961 C286.207838,303.171295 284.912585,303.346879 281.190976,290.864961 C277.469366,278.383042 274.880277,252.63342 278.540801,240.356374 Z" id="Rectangle-2" fill="#000000" transform="translate(285.773309, 265.660672) rotate(42.000000) translate(-285.773309, -265.660672) "></path>
            <path d="M78.5408013,56.3563737 C82.2013259,44.0793278 89.531985,44.1115588 93.1828995,56.3563737 C96.833814,68.6011885 93.5463527,94.5586262 89.8770955,106.864961 C86.2078383,119.171295 84.9125851,119.346879 81.1909758,106.864961 C77.4693665,94.3830423 74.8802768,68.6334196 78.5408013,56.3563737 Z" id="Rectangle-2-Copy-2" fill="#000000" transform="translate(85.773309, 81.660672) rotate(42.000000) translate(-85.773309, -81.660672) "></path>
            <path d="M24.4444702,263.803935 L73.581189,237.046122 L73.581189,279.780497 C73.581189,279.780497 67.737439,274.964091 58.2921265,274.964091 C48.846814,274.964091 18.1827515,279.780497 18.1827515,279.780497 L24.4444702,263.803935 Z" id="Rectangle-3" fill="#000000" transform="translate(45.881970, 258.413310) rotate(42.000000) translate(-45.881970, -258.413310) "></path>
            <path d="M65.4444702,302.803935 L114.581189,276.046122 L114.581189,318.780497 C114.581189,318.780497 108.737439,313.964091 99.2921265,313.964091 C89.846814,313.964091 59.1827515,318.780497 59.1827515,318.780497 L65.4444702,302.803935 Z" id="Rectangle-3" fill="#000000" transform="translate(86.881970, 297.413310) scale(-1, 1) rotate(-42.000000) translate(-86.881970, -297.413310) "></path>
        </g>
    </g>
</svg>